<?xml version="1.0" encoding="utf-8" standalone="no"?>
<!DOCTYPE svg PUBLIC "-//W3C//DTD SVG 1.1//EN"
  "http://www.w3.org/Graphics/SVG/1.1/DTD/svg11.dtd">
<svg xmlns:xlink="http://www.w3.org/1999/xlink" width="568.492812pt" height="423.034375pt" viewBox="0 0 568.492812 423.034375" xmlns="http://www.w3.org/2000/svg" version="1.1">
 <metadata>
  <rdf:RDF xmlns:dc="http://purl.org/dc/elements/1.1/" xmlns:cc="http://creativecommons.org/ns#" xmlns:rdf="http://www.w3.org/1999/02/22-rdf-syntax-ns#">
   <cc:Work>
    <dc:type rdf:resource="http://purl.org/dc/dcmitype/StillImage"/>
    <dc:date>2026-04-13T18:22:05.230951</dc:date>
    <dc:format>image/svg+xml</dc:format>
    <dc:creator>
     <cc:Agent>
      <dc:title>Matplotlib v3.10.8, https://matplotlib.org/</dc:title>
     </cc:Agent>
    </dc:creator>
   </cc:Work>
  </rdf:RDF>
 </metadata>
 <defs>
  <style type="text/css">*{stroke-linejoin: round; stroke-linecap: butt}</style>
 </defs>
 <g id="figure_1">
  <g id="patch_1">
   <path d="M 0 423.034375 
L 568.492812 423.034375 
L 568.492812 0 
L 0 0 
z
" style="fill: #ffffff"/>
  </g>
  <g id="axes_1">
   <g id="patch_2">
    <path d="M 43.78125 385.478125 
L 553.34125 385.478125 
L 553.34125 22.318125 
L 43.78125 22.318125 
z
" style="fill: #ffffff"/>
   </g>
   <g id="matplotlib.axis_1">
    <g id="xtick_1">
     <g id="line2d_1">
      <path d="M 43.78125 385.478125 
L 43.78125 22.318125 
" clip-path="url(#p0c55b737d0)" style="fill: none; stroke-dasharray: 2.96,1.28; stroke-dashoffset: 0; stroke: #b0b0b0; stroke-opacity: 0.3; stroke-width: 0.8"/>
     </g>
     <g id="line2d_2">
      <defs>
       <path id="mc7e88959de" d="M 0 0 
L 0 3.5 
" style="stroke: #000000; stroke-width: 0.8"/>
      </defs>
      <g>
       <use xlink:href="#mc7e88959de" x="43.78125" y="385.478125" style="stroke: #000000; stroke-width: 0.8"/>
      </g>
     </g>
     <g id="text_1">
      <!-- 0.0 -->
      <g transform="translate(35.829688 400.076562) scale(0.1 -0.1)">
       <defs>
        <path id="DejaVuSans-30" d="M 2034 4250 
Q 1547 4250 1301 3770 
Q 1056 3291 1056 2328 
Q 1056 1369 1301 889 
Q 1547 409 2034 409 
Q 2525 409 2770 889 
Q 3016 1369 3016 2328 
Q 3016 3291 2770 3770 
Q 2525 4250 2034 4250 
z
M 2034 4750 
Q 2819 4750 3233 4129 
Q 3647 3509 3647 2328 
Q 3647 1150 3233 529 
Q 2819 -91 2034 -91 
Q 1250 -91 836 529 
Q 422 1150 422 2328 
Q 422 3509 836 4129 
Q 1250 4750 2034 4750 
z
" transform="scale(0.015625)"/>
        <path id="DejaVuSans-2e" d="M 684 794 
L 1344 794 
L 1344 0 
L 684 0 
L 684 794 
z
" transform="scale(0.015625)"/>
       </defs>
       <use xlink:href="#DejaVuSans-30"/>
       <use xlink:href="#DejaVuSans-2e" transform="translate(63.623047 0)"/>
       <use xlink:href="#DejaVuSans-30" transform="translate(95.410156 0)"/>
      </g>
     </g>
    </g>
    <g id="xtick_2">
     <g id="line2d_3">
      <path d="M 145.69325 385.478125 
L 145.69325 22.318125 
" clip-path="url(#p0c55b737d0)" style="fill: none; stroke-dasharray: 2.96,1.28; stroke-dashoffset: 0; stroke: #b0b0b0; stroke-opacity: 0.3; stroke-width: 0.8"/>
     </g>
     <g id="line2d_4">
      <g>
       <use xlink:href="#mc7e88959de" x="145.69325" y="385.478125" style="stroke: #000000; stroke-width: 0.8"/>
      </g>
     </g>
     <g id="text_2">
      <!-- 0.2 -->
      <g transform="translate(137.741688 400.076562) scale(0.1 -0.1)">
       <defs>
        <path id="DejaVuSans-32" d="M 1228 531 
L 3431 531 
L 3431 0 
L 469 0 
L 469 531 
Q 828 903 1448 1529 
Q 2069 2156 2228 2338 
Q 2531 2678 2651 2914 
Q 2772 3150 2772 3378 
Q 2772 3750 2511 3984 
Q 2250 4219 1831 4219 
Q 1534 4219 1204 4116 
Q 875 4013 500 3803 
L 500 4441 
Q 881 4594 1212 4672 
Q 1544 4750 1819 4750 
Q 2544 4750 2975 4387 
Q 3406 4025 3406 3419 
Q 3406 3131 3298 2873 
Q 3191 2616 2906 2266 
Q 2828 2175 2409 1742 
Q 1991 1309 1228 531 
z
" transform="scale(0.015625)"/>
       </defs>
       <use xlink:href="#DejaVuSans-30"/>
       <use xlink:href="#DejaVuSans-2e" transform="translate(63.623047 0)"/>
       <use xlink:href="#DejaVuSans-32" transform="translate(95.410156 0)"/>
      </g>
     </g>
    </g>
    <g id="xtick_3">
     <g id="line2d_5">
      <path d="M 247.60525 385.478125 
L 247.60525 22.318125 
" clip-path="url(#p0c55b737d0)" style="fill: none; stroke-dasharray: 2.96,1.28; stroke-dashoffset: 0; stroke: #b0b0b0; stroke-opacity: 0.3; stroke-width: 0.8"/>
     </g>
     <g id="line2d_6">
      <g>
       <use xlink:href="#mc7e88959de" x="247.60525" y="385.478125" style="stroke: #000000; stroke-width: 0.8"/>
      </g>
     </g>
     <g id="text_3">
      <!-- 0.4 -->
      <g transform="translate(239.653687 400.076562) scale(0.1 -0.1)">
       <defs>
        <path id="DejaVuSans-34" d="M 2419 4116 
L 825 1625 
L 2419 1625 
L 2419 4116 
z
M 2253 4666 
L 3047 4666 
L 3047 1625 
L 3713 1625 
L 3713 1100 
L 3047 1100 
L 3047 0 
L 2419 0 
L 2419 1100 
L 313 1100 
L 313 1709 
L 2253 4666 
z
" transform="scale(0.015625)"/>
       </defs>
       <use xlink:href="#DejaVuSans-30"/>
       <use xlink:href="#DejaVuSans-2e" transform="translate(63.623047 0)"/>
       <use xlink:href="#DejaVuSans-34" transform="translate(95.410156 0)"/>
      </g>
     </g>
    </g>
    <g id="xtick_4">
     <g id="line2d_7">
      <path d="M 349.51725 385.478125 
L 349.51725 22.318125 
" clip-path="url(#p0c55b737d0)" style="fill: none; stroke-dasharray: 2.96,1.28; stroke-dashoffset: 0; stroke: #b0b0b0; stroke-opacity: 0.3; stroke-width: 0.8"/>
     </g>
     <g id="line2d_8">
      <g>
       <use xlink:href="#mc7e88959de" x="349.51725" y="385.478125" style="stroke: #000000; stroke-width: 0.8"/>
      </g>
     </g>
     <g id="text_4">
      <!-- 0.6 -->
      <g transform="translate(341.565687 400.076562) scale(0.1 -0.1)">
       <defs>
        <path id="DejaVuSans-36" d="M 2113 2584 
Q 1688 2584 1439 2293 
Q 1191 2003 1191 1497 
Q 1191 994 1439 701 
Q 1688 409 2113 409 
Q 2538 409 2786 701 
Q 3034 994 3034 1497 
Q 3034 2003 2786 2293 
Q 2538 2584 2113 2584 
z
M 3366 4563 
L 3366 3988 
Q 3128 4100 2886 4159 
Q 2644 4219 2406 4219 
Q 1781 4219 1451 3797 
Q 1122 3375 1075 2522 
Q 1259 2794 1537 2939 
Q 1816 3084 2150 3084 
Q 2853 3084 3261 2657 
Q 3669 2231 3669 1497 
Q 3669 778 3244 343 
Q 2819 -91 2113 -91 
Q 1303 -91 875 529 
Q 447 1150 447 2328 
Q 447 3434 972 4092 
Q 1497 4750 2381 4750 
Q 2619 4750 2861 4703 
Q 3103 4656 3366 4563 
z
" transform="scale(0.015625)"/>
       </defs>
       <use xlink:href="#DejaVuSans-30"/>
       <use xlink:href="#DejaVuSans-2e" transform="translate(63.623047 0)"/>
       <use xlink:href="#DejaVuSans-36" transform="translate(95.410156 0)"/>
      </g>
     </g>
    </g>
    <g id="xtick_5">
     <g id="line2d_9">
      <path d="M 451.42925 385.478125 
L 451.42925 22.318125 
" clip-path="url(#p0c55b737d0)" style="fill: none; stroke-dasharray: 2.96,1.28; stroke-dashoffset: 0; stroke: #b0b0b0; stroke-opacity: 0.3; stroke-width: 0.8"/>
     </g>
     <g id="line2d_10">
      <g>
       <use xlink:href="#mc7e88959de" x="451.42925" y="385.478125" style="stroke: #000000; stroke-width: 0.8"/>
      </g>
     </g>
     <g id="text_5">
      <!-- 0.8 -->
      <g transform="translate(443.477687 400.076562) scale(0.1 -0.1)">
       <defs>
        <path id="DejaVuSans-38" d="M 2034 2216 
Q 1584 2216 1326 1975 
Q 1069 1734 1069 1313 
Q 1069 891 1326 650 
Q 1584 409 2034 409 
Q 2484 409 2743 651 
Q 3003 894 3003 1313 
Q 3003 1734 2745 1975 
Q 2488 2216 2034 2216 
z
M 1403 2484 
Q 997 2584 770 2862 
Q 544 3141 544 3541 
Q 544 4100 942 4425 
Q 1341 4750 2034 4750 
Q 2731 4750 3128 4425 
Q 3525 4100 3525 3541 
Q 3525 3141 3298 2862 
Q 3072 2584 2669 2484 
Q 3125 2378 3379 2068 
Q 3634 1759 3634 1313 
Q 3634 634 3220 271 
Q 2806 -91 2034 -91 
Q 1263 -91 848 271 
Q 434 634 434 1313 
Q 434 1759 690 2068 
Q 947 2378 1403 2484 
z
M 1172 3481 
Q 1172 3119 1398 2916 
Q 1625 2713 2034 2713 
Q 2441 2713 2670 2916 
Q 2900 3119 2900 3481 
Q 2900 3844 2670 4047 
Q 2441 4250 2034 4250 
Q 1625 4250 1398 4047 
Q 1172 3844 1172 3481 
z
" transform="scale(0.015625)"/>
       </defs>
       <use xlink:href="#DejaVuSans-30"/>
       <use xlink:href="#DejaVuSans-2e" transform="translate(63.623047 0)"/>
       <use xlink:href="#DejaVuSans-38" transform="translate(95.410156 0)"/>
      </g>
     </g>
    </g>
    <g id="xtick_6">
     <g id="line2d_11">
      <path d="M 553.34125 385.478125 
L 553.34125 22.318125 
" clip-path="url(#p0c55b737d0)" style="fill: none; stroke-dasharray: 2.96,1.28; stroke-dashoffset: 0; stroke: #b0b0b0; stroke-opacity: 0.3; stroke-width: 0.8"/>
     </g>
     <g id="line2d_12">
      <g>
       <use xlink:href="#mc7e88959de" x="553.34125" y="385.478125" style="stroke: #000000; stroke-width: 0.8"/>
      </g>
     </g>
     <g id="text_6">
      <!-- 1.0 -->
      <g transform="translate(545.389687 400.076562) scale(0.1 -0.1)">
       <defs>
        <path id="DejaVuSans-31" d="M 794 531 
L 1825 531 
L 1825 4091 
L 703 3866 
L 703 4441 
L 1819 4666 
L 2450 4666 
L 2450 531 
L 3481 531 
L 3481 0 
L 794 0 
L 794 531 
z
" transform="scale(0.015625)"/>
       </defs>
       <use xlink:href="#DejaVuSans-31"/>
       <use xlink:href="#DejaVuSans-2e" transform="translate(63.623047 0)"/>
       <use xlink:href="#DejaVuSans-30" transform="translate(95.410156 0)"/>
      </g>
     </g>
    </g>
    <g id="text_7">
     <!-- False Positive Rate -->
     <g transform="translate(252.094844 413.754687) scale(0.1 -0.1)">
      <defs>
       <path id="DejaVuSans-46" d="M 628 4666 
L 3309 4666 
L 3309 4134 
L 1259 4134 
L 1259 2759 
L 3109 2759 
L 3109 2228 
L 1259 2228 
L 1259 0 
L 628 0 
L 628 4666 
z
" transform="scale(0.015625)"/>
       <path id="DejaVuSans-61" d="M 2194 1759 
Q 1497 1759 1228 1600 
Q 959 1441 959 1056 
Q 959 750 1161 570 
Q 1363 391 1709 391 
Q 2188 391 2477 730 
Q 2766 1069 2766 1631 
L 2766 1759 
L 2194 1759 
z
M 3341 1997 
L 3341 0 
L 2766 0 
L 2766 531 
Q 2569 213 2275 61 
Q 1981 -91 1556 -91 
Q 1019 -91 701 211 
Q 384 513 384 1019 
Q 384 1609 779 1909 
Q 1175 2209 1959 2209 
L 2766 2209 
L 2766 2266 
Q 2766 2663 2505 2880 
Q 2244 3097 1772 3097 
Q 1472 3097 1187 3025 
Q 903 2953 641 2809 
L 641 3341 
Q 956 3463 1253 3523 
Q 1550 3584 1831 3584 
Q 2591 3584 2966 3190 
Q 3341 2797 3341 1997 
z
" transform="scale(0.015625)"/>
       <path id="DejaVuSans-6c" d="M 603 4863 
L 1178 4863 
L 1178 0 
L 603 0 
L 603 4863 
z
" transform="scale(0.015625)"/>
       <path id="DejaVuSans-73" d="M 2834 3397 
L 2834 2853 
Q 2591 2978 2328 3040 
Q 2066 3103 1784 3103 
Q 1356 3103 1142 2972 
Q 928 2841 928 2578 
Q 928 2378 1081 2264 
Q 1234 2150 1697 2047 
L 1894 2003 
Q 2506 1872 2764 1633 
Q 3022 1394 3022 966 
Q 3022 478 2636 193 
Q 2250 -91 1575 -91 
Q 1294 -91 989 -36 
Q 684 19 347 128 
L 347 722 
Q 666 556 975 473 
Q 1284 391 1588 391 
Q 1994 391 2212 530 
Q 2431 669 2431 922 
Q 2431 1156 2273 1281 
Q 2116 1406 1581 1522 
L 1381 1569 
Q 847 1681 609 1914 
Q 372 2147 372 2553 
Q 372 3047 722 3315 
Q 1072 3584 1716 3584 
Q 2034 3584 2315 3537 
Q 2597 3491 2834 3397 
z
" transform="scale(0.015625)"/>
       <path id="DejaVuSans-65" d="M 3597 1894 
L 3597 1613 
L 953 1613 
Q 991 1019 1311 708 
Q 1631 397 2203 397 
Q 2534 397 2845 478 
Q 3156 559 3463 722 
L 3463 178 
Q 3153 47 2828 -22 
Q 2503 -91 2169 -91 
Q 1331 -91 842 396 
Q 353 884 353 1716 
Q 353 2575 817 3079 
Q 1281 3584 2069 3584 
Q 2775 3584 3186 3129 
Q 3597 2675 3597 1894 
z
M 3022 2063 
Q 3016 2534 2758 2815 
Q 2500 3097 2075 3097 
Q 1594 3097 1305 2825 
Q 1016 2553 972 2059 
L 3022 2063 
z
" transform="scale(0.015625)"/>
       <path id="DejaVuSans-20" transform="scale(0.015625)"/>
       <path id="DejaVuSans-50" d="M 1259 4147 
L 1259 2394 
L 2053 2394 
Q 2494 2394 2734 2622 
Q 2975 2850 2975 3272 
Q 2975 3691 2734 3919 
Q 2494 4147 2053 4147 
L 1259 4147 
z
M 628 4666 
L 2053 4666 
Q 2838 4666 3239 4311 
Q 3641 3956 3641 3272 
Q 3641 2581 3239 2228 
Q 2838 1875 2053 1875 
L 1259 1875 
L 1259 0 
L 628 0 
L 628 4666 
z
" transform="scale(0.015625)"/>
       <path id="DejaVuSans-6f" d="M 1959 3097 
Q 1497 3097 1228 2736 
Q 959 2375 959 1747 
Q 959 1119 1226 758 
Q 1494 397 1959 397 
Q 2419 397 2687 759 
Q 2956 1122 2956 1747 
Q 2956 2369 2687 2733 
Q 2419 3097 1959 3097 
z
M 1959 3584 
Q 2709 3584 3137 3096 
Q 3566 2609 3566 1747 
Q 3566 888 3137 398 
Q 2709 -91 1959 -91 
Q 1206 -91 779 398 
Q 353 888 353 1747 
Q 353 2609 779 3096 
Q 1206 3584 1959 3584 
z
" transform="scale(0.015625)"/>
       <path id="DejaVuSans-69" d="M 603 3500 
L 1178 3500 
L 1178 0 
L 603 0 
L 603 3500 
z
M 603 4863 
L 1178 4863 
L 1178 4134 
L 603 4134 
L 603 4863 
z
" transform="scale(0.015625)"/>
       <path id="DejaVuSans-74" d="M 1172 4494 
L 1172 3500 
L 2356 3500 
L 2356 3053 
L 1172 3053 
L 1172 1153 
Q 1172 725 1289 603 
Q 1406 481 1766 481 
L 2356 481 
L 2356 0 
L 1766 0 
Q 1100 0 847 248 
Q 594 497 594 1153 
L 594 3053 
L 172 3053 
L 172 3500 
L 594 3500 
L 594 4494 
L 1172 4494 
z
" transform="scale(0.015625)"/>
       <path id="DejaVuSans-76" d="M 191 3500 
L 800 3500 
L 1894 563 
L 2988 3500 
L 3597 3500 
L 2284 0 
L 1503 0 
L 191 3500 
z
" transform="scale(0.015625)"/>
       <path id="DejaVuSans-52" d="M 2841 2188 
Q 3044 2119 3236 1894 
Q 3428 1669 3622 1275 
L 4263 0 
L 3584 0 
L 2988 1197 
Q 2756 1666 2539 1819 
Q 2322 1972 1947 1972 
L 1259 1972 
L 1259 0 
L 628 0 
L 628 4666 
L 2053 4666 
Q 2853 4666 3247 4331 
Q 3641 3997 3641 3322 
Q 3641 2881 3436 2590 
Q 3231 2300 2841 2188 
z
M 1259 4147 
L 1259 2491 
L 2053 2491 
Q 2509 2491 2742 2702 
Q 2975 2913 2975 3322 
Q 2975 3731 2742 3939 
Q 2509 4147 2053 4147 
L 1259 4147 
z
" transform="scale(0.015625)"/>
      </defs>
      <use xlink:href="#DejaVuSans-46"/>
      <use xlink:href="#DejaVuSans-61" transform="translate(48.394531 0)"/>
      <use xlink:href="#DejaVuSans-6c" transform="translate(109.673828 0)"/>
      <use xlink:href="#DejaVuSans-73" transform="translate(137.457031 0)"/>
      <use xlink:href="#DejaVuSans-65" transform="translate(189.556641 0)"/>
      <use xlink:href="#DejaVuSans-20" transform="translate(251.080078 0)"/>
      <use xlink:href="#DejaVuSans-50" transform="translate(282.867188 0)"/>
      <use xlink:href="#DejaVuSans-6f" transform="translate(339.544922 0)"/>
      <use xlink:href="#DejaVuSans-73" transform="translate(400.726562 0)"/>
      <use xlink:href="#DejaVuSans-69" transform="translate(452.826172 0)"/>
      <use xlink:href="#DejaVuSans-74" transform="translate(480.609375 0)"/>
      <use xlink:href="#DejaVuSans-69" transform="translate(519.818359 0)"/>
      <use xlink:href="#DejaVuSans-76" transform="translate(547.601562 0)"/>
      <use xlink:href="#DejaVuSans-65" transform="translate(606.78125 0)"/>
      <use xlink:href="#DejaVuSans-20" transform="translate(668.304688 0)"/>
      <use xlink:href="#DejaVuSans-52" transform="translate(700.091797 0)"/>
      <use xlink:href="#DejaVuSans-61" transform="translate(767.324219 0)"/>
      <use xlink:href="#DejaVuSans-74" transform="translate(828.603516 0)"/>
      <use xlink:href="#DejaVuSans-65" transform="translate(867.8125 0)"/>
     </g>
    </g>
   </g>
   <g id="matplotlib.axis_2">
    <g id="ytick_1">
     <g id="line2d_13">
      <path d="M 43.78125 385.478125 
L 553.34125 385.478125 
" clip-path="url(#p0c55b737d0)" style="fill: none; stroke-dasharray: 2.96,1.28; stroke-dashoffset: 0; stroke: #b0b0b0; stroke-opacity: 0.3; stroke-width: 0.8"/>
     </g>
     <g id="line2d_14">
      <defs>
       <path id="mc6ab573133" d="M 0 0 
L -3.5 0 
" style="stroke: #000000; stroke-width: 0.8"/>
      </defs>
      <g>
       <use xlink:href="#mc6ab573133" x="43.78125" y="385.478125" style="stroke: #000000; stroke-width: 0.8"/>
      </g>
     </g>
     <g id="text_8">
      <!-- 0.0 -->
      <g transform="translate(20.878125 389.277344) scale(0.1 -0.1)">
       <use xlink:href="#DejaVuSans-30"/>
       <use xlink:href="#DejaVuSans-2e" transform="translate(63.623047 0)"/>
       <use xlink:href="#DejaVuSans-30" transform="translate(95.410156 0)"/>
      </g>
     </g>
    </g>
    <g id="ytick_2">
     <g id="line2d_15">
      <path d="M 43.78125 316.304792 
L 553.34125 316.304792 
" clip-path="url(#p0c55b737d0)" style="fill: none; stroke-dasharray: 2.96,1.28; stroke-dashoffset: 0; stroke: #b0b0b0; stroke-opacity: 0.3; stroke-width: 0.8"/>
     </g>
     <g id="line2d_16">
      <g>
       <use xlink:href="#mc6ab573133" x="43.78125" y="316.304792" style="stroke: #000000; stroke-width: 0.8"/>
      </g>
     </g>
     <g id="text_9">
      <!-- 0.2 -->
      <g transform="translate(20.878125 320.10401) scale(0.1 -0.1)">
       <use xlink:href="#DejaVuSans-30"/>
       <use xlink:href="#DejaVuSans-2e" transform="translate(63.623047 0)"/>
       <use xlink:href="#DejaVuSans-32" transform="translate(95.410156 0)"/>
      </g>
     </g>
    </g>
    <g id="ytick_3">
     <g id="line2d_17">
      <path d="M 43.78125 247.131458 
L 553.34125 247.131458 
" clip-path="url(#p0c55b737d0)" style="fill: none; stroke-dasharray: 2.96,1.28; stroke-dashoffset: 0; stroke: #b0b0b0; stroke-opacity: 0.3; stroke-width: 0.8"/>
     </g>
     <g id="line2d_18">
      <g>
       <use xlink:href="#mc6ab573133" x="43.78125" y="247.131458" style="stroke: #000000; stroke-width: 0.8"/>
      </g>
     </g>
     <g id="text_10">
      <!-- 0.4 -->
      <g transform="translate(20.878125 250.930677) scale(0.1 -0.1)">
       <use xlink:href="#DejaVuSans-30"/>
       <use xlink:href="#DejaVuSans-2e" transform="translate(63.623047 0)"/>
       <use xlink:href="#DejaVuSans-34" transform="translate(95.410156 0)"/>
      </g>
     </g>
    </g>
    <g id="ytick_4">
     <g id="line2d_19">
      <path d="M 43.78125 177.958125 
L 553.34125 177.958125 
" clip-path="url(#p0c55b737d0)" style="fill: none; stroke-dasharray: 2.96,1.28; stroke-dashoffset: 0; stroke: #b0b0b0; stroke-opacity: 0.3; stroke-width: 0.8"/>
     </g>
     <g id="line2d_20">
      <g>
       <use xlink:href="#mc6ab573133" x="43.78125" y="177.958125" style="stroke: #000000; stroke-width: 0.8"/>
      </g>
     </g>
     <g id="text_11">
      <!-- 0.6 -->
      <g transform="translate(20.878125 181.757344) scale(0.1 -0.1)">
       <use xlink:href="#DejaVuSans-30"/>
       <use xlink:href="#DejaVuSans-2e" transform="translate(63.623047 0)"/>
       <use xlink:href="#DejaVuSans-36" transform="translate(95.410156 0)"/>
      </g>
     </g>
    </g>
    <g id="ytick_5">
     <g id="line2d_21">
      <path d="M 43.78125 108.784792 
L 553.34125 108.784792 
" clip-path="url(#p0c55b737d0)" style="fill: none; stroke-dasharray: 2.96,1.28; stroke-dashoffset: 0; stroke: #b0b0b0; stroke-opacity: 0.3; stroke-width: 0.8"/>
     </g>
     <g id="line2d_22">
      <g>
       <use xlink:href="#mc6ab573133" x="43.78125" y="108.784792" style="stroke: #000000; stroke-width: 0.8"/>
      </g>
     </g>
     <g id="text_12">
      <!-- 0.8 -->
      <g transform="translate(20.878125 112.58401) scale(0.1 -0.1)">
       <use xlink:href="#DejaVuSans-30"/>
       <use xlink:href="#DejaVuSans-2e" transform="translate(63.623047 0)"/>
       <use xlink:href="#DejaVuSans-38" transform="translate(95.410156 0)"/>
      </g>
     </g>
    </g>
    <g id="ytick_6">
     <g id="line2d_23">
      <path d="M 43.78125 39.611458 
L 553.34125 39.611458 
" clip-path="url(#p0c55b737d0)" style="fill: none; stroke-dasharray: 2.96,1.28; stroke-dashoffset: 0; stroke: #b0b0b0; stroke-opacity: 0.3; stroke-width: 0.8"/>
     </g>
     <g id="line2d_24">
      <g>
       <use xlink:href="#mc6ab573133" x="43.78125" y="39.611458" style="stroke: #000000; stroke-width: 0.8"/>
      </g>
     </g>
     <g id="text_13">
      <!-- 1.0 -->
      <g transform="translate(20.878125 43.410677) scale(0.1 -0.1)">
       <use xlink:href="#DejaVuSans-31"/>
       <use xlink:href="#DejaVuSans-2e" transform="translate(63.623047 0)"/>
       <use xlink:href="#DejaVuSans-30" transform="translate(95.410156 0)"/>
      </g>
     </g>
    </g>
    <g id="text_14">
     <!-- True Positive Rate -->
     <g transform="translate(14.798438 248.427812) rotate(-90) scale(0.1 -0.1)">
      <defs>
       <path id="DejaVuSans-54" d="M -19 4666 
L 3928 4666 
L 3928 4134 
L 2272 4134 
L 2272 0 
L 1638 0 
L 1638 4134 
L -19 4134 
L -19 4666 
z
" transform="scale(0.015625)"/>
       <path id="DejaVuSans-72" d="M 2631 2963 
Q 2534 3019 2420 3045 
Q 2306 3072 2169 3072 
Q 1681 3072 1420 2755 
Q 1159 2438 1159 1844 
L 1159 0 
L 581 0 
L 581 3500 
L 1159 3500 
L 1159 2956 
Q 1341 3275 1631 3429 
Q 1922 3584 2338 3584 
Q 2397 3584 2469 3576 
Q 2541 3569 2628 3553 
L 2631 2963 
z
" transform="scale(0.015625)"/>
       <path id="DejaVuSans-75" d="M 544 1381 
L 544 3500 
L 1119 3500 
L 1119 1403 
Q 1119 906 1312 657 
Q 1506 409 1894 409 
Q 2359 409 2629 706 
Q 2900 1003 2900 1516 
L 2900 3500 
L 3475 3500 
L 3475 0 
L 2900 0 
L 2900 538 
Q 2691 219 2414 64 
Q 2138 -91 1772 -91 
Q 1169 -91 856 284 
Q 544 659 544 1381 
z
M 1991 3584 
L 1991 3584 
z
" transform="scale(0.015625)"/>
      </defs>
      <use xlink:href="#DejaVuSans-54"/>
      <use xlink:href="#DejaVuSans-72" transform="translate(46.333984 0)"/>
      <use xlink:href="#DejaVuSans-75" transform="translate(87.447266 0)"/>
      <use xlink:href="#DejaVuSans-65" transform="translate(150.826172 0)"/>
      <use xlink:href="#DejaVuSans-20" transform="translate(212.349609 0)"/>
      <use xlink:href="#DejaVuSans-50" transform="translate(244.136719 0)"/>
      <use xlink:href="#DejaVuSans-6f" transform="translate(300.814453 0)"/>
      <use xlink:href="#DejaVuSans-73" transform="translate(361.996094 0)"/>
      <use xlink:href="#DejaVuSans-69" transform="translate(414.095703 0)"/>
      <use xlink:href="#DejaVuSans-74" transform="translate(441.878906 0)"/>
      <use xlink:href="#DejaVuSans-69" transform="translate(481.087891 0)"/>
      <use xlink:href="#DejaVuSans-76" transform="translate(508.871094 0)"/>
      <use xlink:href="#DejaVuSans-65" transform="translate(568.050781 0)"/>
      <use xlink:href="#DejaVuSans-20" transform="translate(629.574219 0)"/>
      <use xlink:href="#DejaVuSans-52" transform="translate(661.361328 0)"/>
      <use xlink:href="#DejaVuSans-61" transform="translate(728.59375 0)"/>
      <use xlink:href="#DejaVuSans-74" transform="translate(789.873047 0)"/>
      <use xlink:href="#DejaVuSans-65" transform="translate(829.082031 0)"/>
     </g>
    </g>
   </g>
   <g id="line2d_25">
    <path d="M 43.78125 385.478125 
L 44.421401 385.478125 
L 44.421401 384.630413 
L 45.061552 384.630413 
L 45.061552 382.934988 
L 45.381627 382.934988 
L 45.381627 382.087275 
L 46.021778 382.087275 
L 46.021778 381.239563 
L 48.262305 381.239563 
L 48.262305 377.848713 
L 48.582381 377.848713 
L 48.582381 377.001001 
L 48.902456 377.001001 
L 48.902456 376.153288 
L 49.222531 376.153288 
L 49.222531 374.457864 
L 49.862682 374.457864 
L 49.862682 373.610151 
L 50.182758 373.610151 
L 50.182758 371.914726 
L 50.502833 371.914726 
L 50.502833 370.219301 
L 50.822908 370.219301 
L 50.822908 369.371589 
L 52.423285 369.371589 
L 52.423285 368.523877 
L 53.063436 368.523877 
L 53.063436 367.676164 
L 53.703587 367.676164 
L 53.703587 366.828452 
L 54.023662 366.828452 
L 54.023662 365.980739 
L 54.343737 365.980739 
L 54.343737 364.285315 
L 55.303964 364.285315 
L 55.303964 363.437602 
L 55.624039 363.437602 
L 55.624039 362.58989 
L 56.584265 362.58989 
L 56.584265 361.742177 
L 56.90434 361.742177 
L 56.90434 357.503615 
L 57.224416 357.503615 
L 57.224416 356.655903 
L 57.864567 356.655903 
L 57.864567 355.80819 
L 58.184642 355.80819 
L 58.184642 354.960478 
L 58.504717 354.960478 
L 58.504717 354.112766 
L 59.144868 354.112766 
L 59.144868 352.417341 
L 59.464943 352.417341 
L 59.464943 351.569628 
L 60.105094 351.569628 
L 60.105094 350.721916 
L 61.06532 350.721916 
L 61.06532 349.874203 
L 61.385396 349.874203 
L 61.385396 347.331066 
L 61.705471 347.331066 
L 61.705471 344.787929 
L 62.025546 344.787929 
L 62.025546 343.092504 
L 62.345622 343.092504 
L 62.345622 340.549367 
L 62.985773 340.549367 
L 62.985773 338.00623 
L 63.305848 338.00623 
L 63.305848 334.61538 
L 63.625923 334.61538 
L 63.625923 331.22453 
L 63.945999 331.22453 
L 63.945999 330.376818 
L 65.546376 330.376818 
L 65.546376 326.985968 
L 65.866451 326.985968 
L 65.866451 325.290543 
L 66.186526 325.290543 
L 66.186526 324.442831 
L 67.146753 324.442831 
L 67.146753 322.747406 
L 67.786903 322.747406 
L 67.786903 321.051981 
L 68.106979 321.051981 
L 68.106979 318.508844 
L 68.427054 318.508844 
L 68.427054 315.965707 
L 68.747129 315.965707 
L 68.747129 315.117994 
L 69.067205 315.117994 
L 69.067205 313.422569 
L 69.38728 313.422569 
L 69.38728 309.184007 
L 70.347506 309.184007 
L 70.347506 308.336295 
L 70.987657 308.336295 
L 70.987657 307.488583 
L 71.307732 307.488583 
L 71.307732 305.793158 
L 71.627808 305.793158 
L 71.627808 304.945445 
L 72.267959 304.945445 
L 72.267959 302.402308 
L 73.228185 302.402308 
L 73.228185 301.554596 
L 74.188411 301.554596 
L 74.188411 300.706883 
L 74.828562 300.706883 
L 74.828562 297.316033 
L 75.148637 297.316033 
L 75.148637 294.772896 
L 76.428938 294.772896 
L 76.428938 293.925184 
L 77.069089 293.925184 
L 77.069089 292.229759 
L 78.669466 292.229759 
L 78.669466 291.382047 
L 78.989541 291.382047 
L 78.989541 289.686622 
L 79.629692 289.686622 
L 79.629692 288.838909 
L 80.589918 288.838909 
L 80.589918 287.991197 
L 81.550144 287.991197 
L 81.550144 287.143484 
L 82.190295 287.143484 
L 82.190295 286.295772 
L 82.510371 286.295772 
L 82.510371 284.600347 
L 82.830446 284.600347 
L 82.830446 282.904922 
L 83.470597 282.904922 
L 83.470597 282.05721 
L 86.0312 282.05721 
L 86.0312 280.361785 
L 87.311501 280.361785 
L 87.311501 279.514073 
L 87.631577 279.514073 
L 87.631577 276.970935 
L 89.552029 276.970935 
L 89.552029 276.123223 
L 89.872104 276.123223 
L 89.872104 275.275511 
L 93.392933 275.275511 
L 93.392933 274.427798 
L 93.713009 274.427798 
L 93.713009 272.732373 
L 95.953536 272.732373 
L 95.953536 271.036949 
L 97.553913 271.036949 
L 97.553913 268.493811 
L 97.873989 268.493811 
L 97.873989 267.646099 
L 98.514139 267.646099 
L 98.514139 266.798386 
L 100.434592 266.798386 
L 100.434592 263.407537 
L 101.394818 263.407537 
L 101.394818 262.559824 
L 102.355044 262.559824 
L 102.355044 260.8644 
L 104.595572 260.8644 
L 104.595572 260.016687 
L 104.915647 260.016687 
L 104.915647 259.168975 
L 106.195948 259.168975 
L 106.195948 257.47355 
L 107.156175 257.47355 
L 107.156175 256.625837 
L 107.796325 256.625837 
L 107.796325 253.234988 
L 108.116401 253.234988 
L 108.116401 250.69185 
L 109.396702 250.69185 
L 109.396702 249.844138 
L 110.036853 249.844138 
L 110.036853 248.996426 
L 111.317155 248.996426 
L 111.317155 248.148713 
L 112.277381 248.148713 
L 112.277381 246.453288 
L 113.557682 246.453288 
L 113.557682 244.757864 
L 113.877758 244.757864 
L 113.877758 243.910151 
L 114.197833 243.910151 
L 114.197833 243.062439 
L 115.158059 243.062439 
L 115.158059 242.214726 
L 115.478134 242.214726 
L 115.478134 240.519301 
L 116.438361 240.519301 
L 116.438361 238.823877 
L 116.758436 238.823877 
L 116.758436 237.976164 
L 117.718662 237.976164 
L 117.718662 237.128452 
L 119.639114 237.128452 
L 119.639114 234.585315 
L 120.279265 234.585315 
L 120.279265 233.737602 
L 120.919416 233.737602 
L 120.919416 232.042177 
L 121.559567 232.042177 
L 121.559567 228.651328 
L 122.839868 228.651328 
L 122.839868 225.260478 
L 123.159943 225.260478 
L 123.159943 224.412766 
L 123.800094 224.412766 
L 123.800094 223.565053 
L 125.720546 223.565053 
L 125.720546 222.717341 
L 127.320923 222.717341 
L 127.320923 221.021916 
L 127.961074 221.021916 
L 127.961074 220.174203 
L 128.9213 220.174203 
L 128.9213 218.478779 
L 130.201602 218.478779 
L 130.201602 217.631066 
L 131.481903 217.631066 
L 131.481903 216.783354 
L 131.801979 216.783354 
L 131.801979 215.087929 
L 132.122054 215.087929 
L 132.122054 213.392504 
L 133.08228 213.392504 
L 133.08228 212.544792 
L 136.283034 212.544792 
L 136.283034 211.697079 
L 137.883411 211.697079 
L 137.883411 210.849367 
L 138.203486 210.849367 
L 138.203486 210.001654 
L 138.843637 210.001654 
L 138.843637 208.30623 
L 139.483788 208.30623 
L 139.483788 207.458517 
L 139.803863 207.458517 
L 139.803863 206.610805 
L 140.764089 206.610805 
L 140.764089 205.763092 
L 141.40424 205.763092 
L 141.40424 204.067667 
L 142.684541 204.067667 
L 142.684541 203.219955 
L 143.004617 203.219955 
L 143.004617 199.829105 
L 143.324692 199.829105 
L 143.324692 198.981393 
L 145.56522 198.981393 
L 145.56522 198.133681 
L 146.845521 198.133681 
L 146.845521 197.285968 
L 147.805747 197.285968 
L 147.805747 196.438256 
L 149.086049 196.438256 
L 149.086049 195.590543 
L 149.7262 195.590543 
L 149.7262 194.742831 
L 150.366351 194.742831 
L 150.366351 193.895118 
L 150.686426 193.895118 
L 150.686426 193.047406 
L 151.646652 193.047406 
L 151.646652 192.199694 
L 152.286803 192.199694 
L 152.286803 190.504269 
L 153.567104 190.504269 
L 153.567104 189.656556 
L 153.88718 189.656556 
L 153.88718 188.808844 
L 154.52733 188.808844 
L 154.52733 187.961132 
L 156.767858 187.961132 
L 156.767858 187.113419 
L 159.008386 187.113419 
L 159.008386 186.265707 
L 160.928838 186.265707 
L 160.928838 183.722569 
L 162.209139 183.722569 
L 162.209139 182.027145 
L 162.529215 182.027145 
L 162.529215 181.179432 
L 162.84929 181.179432 
L 162.84929 180.33172 
L 164.769742 180.33172 
L 164.769742 178.636295 
L 165.409893 178.636295 
L 165.409893 177.788583 
L 165.729969 177.788583 
L 165.729969 176.94087 
L 166.690195 176.94087 
L 166.690195 175.245445 
L 167.970496 175.245445 
L 167.970496 174.397733 
L 168.930722 174.397733 
L 168.930722 173.55002 
L 170.211024 173.55002 
L 170.211024 172.702308 
L 171.17125 172.702308 
L 171.17125 171.006883 
L 171.811401 171.006883 
L 171.811401 170.159171 
L 173.091702 170.159171 
L 173.091702 169.311458 
L 175.012155 169.311458 
L 175.012155 168.463746 
L 176.292456 168.463746 
L 176.292456 166.768321 
L 177.252682 166.768321 
L 177.252682 165.920609 
L 177.892833 165.920609 
L 177.892833 165.072896 
L 179.173134 165.072896 
L 179.173134 164.225184 
L 179.813285 164.225184 
L 179.813285 163.377471 
L 180.453436 163.377471 
L 180.453436 162.529759 
L 180.773511 162.529759 
L 180.773511 161.682047 
L 182.693964 161.682047 
L 182.693964 160.834334 
L 184.29434 160.834334 
L 184.29434 159.986622 
L 186.854943 159.986622 
L 186.854943 159.138909 
L 187.175019 159.138909 
L 187.175019 158.291197 
L 187.81517 158.291197 
L 187.81517 157.443484 
L 188.45532 157.443484 
L 188.45532 156.595772 
L 189.415546 156.595772 
L 189.415546 155.74806 
L 190.695848 155.74806 
L 190.695848 154.900347 
L 191.015923 154.900347 
L 191.015923 154.052635 
L 193.256451 154.052635 
L 193.256451 153.204922 
L 193.576526 153.204922 
L 193.576526 151.509498 
L 194.856828 151.509498 
L 194.856828 150.661785 
L 195.176903 150.661785 
L 195.176903 149.814073 
L 196.457205 149.814073 
L 196.457205 148.96636 
L 201.578411 148.96636 
L 201.578411 148.118648 
L 201.898486 148.118648 
L 201.898486 145.575511 
L 202.858712 145.575511 
L 202.858712 144.727798 
L 205.419315 144.727798 
L 205.419315 142.184661 
L 211.500747 142.184661 
L 211.500747 141.336949 
L 212.140898 141.336949 
L 212.140898 140.489236 
L 212.460974 140.489236 
L 212.460974 139.641524 
L 215.341652 139.641524 
L 215.341652 137.946099 
L 217.262104 137.946099 
L 217.262104 137.098386 
L 218.22233 137.098386 
L 218.22233 136.250674 
L 222.38331 136.250674 
L 222.38331 135.402962 
L 223.983687 135.402962 
L 223.983687 134.555249 
L 225.904139 134.555249 
L 225.904139 133.707537 
L 227.504516 133.707537 
L 227.504516 132.859824 
L 238.067004 132.859824 
L 238.067004 132.012112 
L 241.907908 132.012112 
L 241.907908 131.1644 
L 242.868134 131.1644 
L 242.868134 130.316687 
L 243.508285 130.316687 
L 243.508285 129.468975 
L 243.828361 129.468975 
L 243.828361 127.77355 
L 245.108662 127.77355 
L 245.108662 126.925837 
L 246.388964 126.925837 
L 246.388964 126.078125 
L 250.870019 126.078125 
L 250.870019 124.3827 
L 256.631376 124.3827 
L 256.631376 123.534988 
L 258.551828 123.534988 
L 258.551828 122.687275 
L 260.47228 122.687275 
L 260.47228 121.839563 
L 261.112431 121.839563 
L 261.112431 120.99185 
L 262.392732 120.99185 
L 262.392732 119.296426 
L 263.993109 119.296426 
L 263.993109 118.448713 
L 265.273411 118.448713 
L 265.273411 116.753288 
L 267.193863 116.753288 
L 267.193863 115.905576 
L 268.154089 115.905576 
L 268.154089 114.210151 
L 269.434391 114.210151 
L 269.434391 113.362439 
L 270.394617 113.362439 
L 270.394617 112.514726 
L 270.714692 112.514726 
L 270.714692 111.667014 
L 271.994994 111.667014 
L 271.994994 110.819301 
L 273.275295 110.819301 
L 273.275295 109.971589 
L 275.195747 109.971589 
L 275.195747 109.123877 
L 277.756351 109.123877 
L 277.756351 108.276164 
L 278.076426 108.276164 
L 278.076426 107.428452 
L 279.676803 107.428452 
L 279.676803 106.580739 
L 287.038536 106.580739 
L 287.038536 104.885315 
L 290.23929 104.885315 
L 290.23929 104.037602 
L 291.519592 104.037602 
L 291.519592 103.18989 
L 293.440044 103.18989 
L 293.440044 102.342177 
L 293.760119 102.342177 
L 293.760119 101.494465 
L 295.680572 101.494465 
L 295.680572 100.646752 
L 296.960873 100.646752 
L 296.960873 99.79904 
L 298.241175 99.79904 
L 298.241175 98.951328 
L 299.521476 98.951328 
L 299.521476 96.40819 
L 304.322607 96.40819 
L 304.322607 95.560478 
L 306.88321 95.560478 
L 306.88321 94.712766 
L 307.523361 94.712766 
L 307.523361 93.865053 
L 307.843436 93.865053 
L 307.843436 93.017341 
L 309.123737 93.017341 
L 309.123737 92.169628 
L 311.04419 92.169628 
L 311.04419 91.321916 
L 312.964642 91.321916 
L 312.964642 90.474203 
L 314.244943 90.474203 
L 314.244943 89.626491 
L 314.565019 89.626491 
L 314.565019 88.778779 
L 317.445697 88.778779 
L 317.445697 87.931066 
L 318.405923 87.931066 
L 318.405923 87.083354 
L 320.326376 87.083354 
L 320.326376 86.235641 
L 321.926753 86.235641 
L 321.926753 85.387929 
L 325.127506 85.387929 
L 325.127506 84.540217 
L 326.087732 84.540217 
L 326.087732 83.692504 
L 327.688109 83.692504 
L 327.688109 82.844792 
L 328.32826 82.844792 
L 328.32826 81.997079 
L 329.288486 81.997079 
L 329.288486 81.149367 
L 331.208938 81.149367 
L 331.208938 80.301654 
L 331.849089 80.301654 
L 331.849089 79.453942 
L 332.809315 79.453942 
L 332.809315 77.758517 
L 341.131275 77.758517 
L 341.131275 76.910805 
L 341.771426 76.910805 
L 341.771426 76.063092 
L 345.292255 76.063092 
L 345.292255 75.21538 
L 345.61233 75.21538 
L 345.61233 73.519955 
L 349.13316 73.519955 
L 349.13316 72.672243 
L 354.254366 72.672243 
L 354.254366 71.82453 
L 363.216476 71.82453 
L 363.216476 70.976818 
L 368.337682 70.976818 
L 368.337682 70.129105 
L 369.617984 70.129105 
L 369.617984 69.281393 
L 370.258134 69.281393 
L 370.258134 68.433681 
L 372.818737 68.433681 
L 372.818737 67.585968 
L 373.138813 67.585968 
L 373.138813 66.738256 
L 373.458888 66.738256 
L 373.458888 65.890543 
L 375.699416 65.890543 
L 375.699416 65.042831 
L 381.140697 65.042831 
L 381.140697 64.195118 
L 381.780848 64.195118 
L 381.780848 63.347406 
L 395.224014 63.347406 
L 395.224014 62.499694 
L 395.544089 62.499694 
L 395.544089 61.651981 
L 397.144466 61.651981 
L 397.144466 60.804269 
L 398.424768 60.804269 
L 398.424768 59.956556 
L 399.064918 59.956556 
L 399.064918 59.108844 
L 405.146351 59.108844 
L 405.146351 58.261132 
L 408.347104 58.261132 
L 408.347104 57.413419 
L 416.028913 57.413419 
L 416.028913 56.565707 
L 417.949366 56.565707 
L 417.949366 55.717994 
L 423.070572 55.717994 
L 423.070572 54.870282 
L 428.831928 54.870282 
L 428.831928 54.022569 
L 435.233436 54.022569 
L 435.233436 53.174857 
L 439.07434 53.174857 
L 439.07434 52.327145 
L 440.034567 52.327145 
L 440.034567 51.479432 
L 455.078109 51.479432 
L 455.078109 49.784007 
L 471.081878 49.784007 
L 471.081878 48.936295 
L 480.684139 48.936295 
L 480.684139 48.088583 
L 484.845119 48.088583 
L 484.845119 47.24087 
L 491.886778 47.24087 
L 491.886778 46.393158 
L 497.007984 46.393158 
L 497.007984 45.545445 
L 504.689793 45.545445 
L 504.689793 44.697733 
L 506.29017 44.697733 
L 506.29017 43.85002 
L 512.371602 43.85002 
L 512.371602 42.154596 
L 519.733335 42.154596 
L 519.733335 41.306883 
L 520.693562 41.306883 
L 520.693562 40.459171 
L 552.381024 40.459171 
L 552.381024 39.611458 
L 553.34125 39.611458 
L 553.34125 39.611458 
" clip-path="url(#p0c55b737d0)" style="fill: none; stroke: #2e8b57; stroke-width: 2; stroke-linecap: square"/>
   </g>
   <g id="line2d_26">
    <path d="M 43.78125 385.478125 
L 43.78125 384.630413 
L 43.78125 382.934988 
L 43.78125 382.087275 
L 43.78125 380.39185 
L 43.78125 379.544138 
L 43.78125 377.001001 
L 43.78125 372.762439 
L 43.78125 369.371589 
L 43.78125 368.523877 
L 43.78125 365.980739 
L 43.78125 362.58989 
L 43.78125 360.046752 
L 43.78125 358.351328 
L 44.421401 354.960478 
L 44.421401 350.721916 
L 44.421401 344.787929 
L 44.741476 342.244792 
L 44.741476 339.701654 
L 44.741476 338.00623 
L 44.741476 332.072243 
L 45.061552 330.376818 
L 45.701702 326.138256 
L 45.701702 324.442831 
L 46.341853 320.204269 
L 47.302079 317.661132 
L 47.302079 312.574857 
L 47.94223 304.945445 
L 48.262305 300.706883 
L 48.262305 295.620609 
L 48.582381 291.382047 
L 49.222531 290.534334 
L 49.222531 287.991197 
L 49.862682 283.752635 
L 50.182758 281.209498 
L 51.463059 275.275511 
L 53.383511 266.798386 
L 53.383511 265.950674 
L 54.023662 260.016687 
L 55.944114 251.539563 
L 55.944114 247.301001 
L 57.224416 244.757864 
L 58.504717 243.062439 
L 60.42517 239.671589 
L 61.705471 233.737602 
L 63.305848 231.194465 
L 64.586149 226.955903 
L 66.826677 223.565053 
L 69.38728 220.174203 
L 70.667582 210.849367 
L 74.508486 207.458517 
L 75.788788 204.91538 
L 78.029315 197.285968 
L 81.230069 194.742831 
L 83.790672 189.656556 
L 86.671351 183.722569 
L 88.911878 176.093158 
L 97.873989 172.702308 
L 100.434592 171.006883 
L 106.195948 167.616033 
L 111.63723 159.986622 
L 117.718662 157.443484 
L 123.480019 153.204922 
L 127.320923 148.96636 
L 133.722431 145.575511 
L 138.203486 143.032373 
L 143.964843 141.336949 
L 148.445898 137.946099 
L 153.88718 131.1644 
L 162.209139 127.77355 
L 167.330345 123.534988 
L 174.051928 118.448713 
L 179.49321 113.362439 
L 188.45532 109.123877 
L 196.77728 105.733027 
L 206.699617 102.342177 
L 215.341652 98.951328 
L 224.623838 91.321916 
L 236.466627 87.931066 
L 256.631376 82.844792 
L 271.674918 77.758517 
L 285.43816 70.976818 
L 305.282833 70.129105 
L 325.447582 65.042831 
L 346.892632 61.651981 
L 360.655873 56.565707 
L 384.021376 53.174857 
L 408.66718 51.479432 
L 432.352758 44.697733 
L 459.239089 43.85002 
L 482.924667 43.85002 
L 513.331828 41.306883 
L 538.937858 39.611458 
L 553.34125 39.611458 
" clip-path="url(#p0c55b737d0)" style="fill: none; stroke: #c0392b; stroke-width: 2; stroke-linecap: square"/>
   </g>
   <g id="line2d_27">
    <path d="M 43.78125 385.478125 
L 553.34125 39.611458 
" clip-path="url(#p0c55b737d0)" style="fill: none; stroke-dasharray: 5.55,2.4; stroke-dashoffset: 0; stroke: #555555; stroke-width: 1.5"/>
   </g>
   <g id="patch_3">
    <path d="M 43.78125 385.478125 
L 43.78125 22.318125 
" style="fill: none; stroke: #000000; stroke-width: 0.8; stroke-linejoin: miter; stroke-linecap: square"/>
   </g>
   <g id="patch_4">
    <path d="M 553.34125 385.478125 
L 553.34125 22.318125 
" style="fill: none; stroke: #000000; stroke-width: 0.8; stroke-linejoin: miter; stroke-linecap: square"/>
   </g>
   <g id="patch_5">
    <path d="M 43.78125 385.478125 
L 553.34125 385.478125 
" style="fill: none; stroke: #000000; stroke-width: 0.8; stroke-linejoin: miter; stroke-linecap: square"/>
   </g>
   <g id="patch_6">
    <path d="M 43.78125 22.318125 
L 553.34125 22.318125 
" style="fill: none; stroke: #000000; stroke-width: 0.8; stroke-linejoin: miter; stroke-linecap: square"/>
   </g>
   <g id="text_15">
    <!-- ROC Curve Analysis -->
    <g transform="translate(239.24375 16.318125) scale(0.12 -0.12)">
     <defs>
      <path id="DejaVuSans-4f" d="M 2522 4238 
Q 1834 4238 1429 3725 
Q 1025 3213 1025 2328 
Q 1025 1447 1429 934 
Q 1834 422 2522 422 
Q 3209 422 3611 934 
Q 4013 1447 4013 2328 
Q 4013 3213 3611 3725 
Q 3209 4238 2522 4238 
z
M 2522 4750 
Q 3503 4750 4090 4092 
Q 4678 3434 4678 2328 
Q 4678 1225 4090 567 
Q 3503 -91 2522 -91 
Q 1538 -91 948 565 
Q 359 1222 359 2328 
Q 359 3434 948 4092 
Q 1538 4750 2522 4750 
z
" transform="scale(0.015625)"/>
      <path id="DejaVuSans-43" d="M 4122 4306 
L 4122 3641 
Q 3803 3938 3442 4084 
Q 3081 4231 2675 4231 
Q 1875 4231 1450 3742 
Q 1025 3253 1025 2328 
Q 1025 1406 1450 917 
Q 1875 428 2675 428 
Q 3081 428 3442 575 
Q 3803 722 4122 1019 
L 4122 359 
Q 3791 134 3420 21 
Q 3050 -91 2638 -91 
Q 1578 -91 968 557 
Q 359 1206 359 2328 
Q 359 3453 968 4101 
Q 1578 4750 2638 4750 
Q 3056 4750 3426 4639 
Q 3797 4528 4122 4306 
z
" transform="scale(0.015625)"/>
      <path id="DejaVuSans-41" d="M 2188 4044 
L 1331 1722 
L 3047 1722 
L 2188 4044 
z
M 1831 4666 
L 2547 4666 
L 4325 0 
L 3669 0 
L 3244 1197 
L 1141 1197 
L 716 0 
L 50 0 
L 1831 4666 
z
" transform="scale(0.015625)"/>
      <path id="DejaVuSans-6e" d="M 3513 2113 
L 3513 0 
L 2938 0 
L 2938 2094 
Q 2938 2591 2744 2837 
Q 2550 3084 2163 3084 
Q 1697 3084 1428 2787 
Q 1159 2491 1159 1978 
L 1159 0 
L 581 0 
L 581 3500 
L 1159 3500 
L 1159 2956 
Q 1366 3272 1645 3428 
Q 1925 3584 2291 3584 
Q 2894 3584 3203 3211 
Q 3513 2838 3513 2113 
z
" transform="scale(0.015625)"/>
      <path id="DejaVuSans-79" d="M 2059 -325 
Q 1816 -950 1584 -1140 
Q 1353 -1331 966 -1331 
L 506 -1331 
L 506 -850 
L 844 -850 
Q 1081 -850 1212 -737 
Q 1344 -625 1503 -206 
L 1606 56 
L 191 3500 
L 800 3500 
L 1894 763 
L 2988 3500 
L 3597 3500 
L 2059 -325 
z
" transform="scale(0.015625)"/>
     </defs>
     <use xlink:href="#DejaVuSans-52"/>
     <use xlink:href="#DejaVuSans-4f" transform="translate(69.482422 0)"/>
     <use xlink:href="#DejaVuSans-43" transform="translate(148.193359 0)"/>
     <use xlink:href="#DejaVuSans-20" transform="translate(218.017578 0)"/>
     <use xlink:href="#DejaVuSans-43" transform="translate(249.804688 0)"/>
     <use xlink:href="#DejaVuSans-75" transform="translate(319.628906 0)"/>
     <use xlink:href="#DejaVuSans-72" transform="translate(383.007812 0)"/>
     <use xlink:href="#DejaVuSans-76" transform="translate(424.121094 0)"/>
     <use xlink:href="#DejaVuSans-65" transform="translate(483.300781 0)"/>
     <use xlink:href="#DejaVuSans-20" transform="translate(544.824219 0)"/>
     <use xlink:href="#DejaVuSans-41" transform="translate(576.611328 0)"/>
     <use xlink:href="#DejaVuSans-6e" transform="translate(645.019531 0)"/>
     <use xlink:href="#DejaVuSans-61" transform="translate(708.398438 0)"/>
     <use xlink:href="#DejaVuSans-6c" transform="translate(769.677734 0)"/>
     <use xlink:href="#DejaVuSans-79" transform="translate(797.460938 0)"/>
     <use xlink:href="#DejaVuSans-73" transform="translate(856.640625 0)"/>
     <use xlink:href="#DejaVuSans-69" transform="translate(908.740234 0)"/>
     <use xlink:href="#DejaVuSans-73" transform="translate(936.523438 0)"/>
    </g>
   </g>
   <g id="legend_1">
    <g id="patch_7">
     <path d="M 342.935 380.478125 
L 546.34125 380.478125 
Q 548.34125 380.478125 548.34125 378.478125 
L 548.34125 335.44375 
Q 548.34125 333.44375 546.34125 333.44375 
L 342.935 333.44375 
Q 340.935 333.44375 340.935 335.44375 
L 340.935 378.478125 
Q 340.935 380.478125 342.935 380.478125 
z
" style="fill: #ffffff; opacity: 0.8; stroke: #cccccc; stroke-linejoin: miter"/>
    </g>
    <g id="line2d_28">
     <path d="M 344.935 341.542187 
L 354.935 341.542187 
L 364.935 341.542187 
" style="fill: none; stroke: #2e8b57; stroke-width: 2; stroke-linecap: square"/>
    </g>
    <g id="text_16">
     <!-- Logistic Regression (AUC = 0.745) -->
     <g transform="translate(372.935 345.042187) scale(0.1 -0.1)">
      <defs>
       <path id="DejaVuSans-4c" d="M 628 4666 
L 1259 4666 
L 1259 531 
L 3531 531 
L 3531 0 
L 628 0 
L 628 4666 
z
" transform="scale(0.015625)"/>
       <path id="DejaVuSans-67" d="M 2906 1791 
Q 2906 2416 2648 2759 
Q 2391 3103 1925 3103 
Q 1463 3103 1205 2759 
Q 947 2416 947 1791 
Q 947 1169 1205 825 
Q 1463 481 1925 481 
Q 2391 481 2648 825 
Q 2906 1169 2906 1791 
z
M 3481 434 
Q 3481 -459 3084 -895 
Q 2688 -1331 1869 -1331 
Q 1566 -1331 1297 -1286 
Q 1028 -1241 775 -1147 
L 775 -588 
Q 1028 -725 1275 -790 
Q 1522 -856 1778 -856 
Q 2344 -856 2625 -561 
Q 2906 -266 2906 331 
L 2906 616 
Q 2728 306 2450 153 
Q 2172 0 1784 0 
Q 1141 0 747 490 
Q 353 981 353 1791 
Q 353 2603 747 3093 
Q 1141 3584 1784 3584 
Q 2172 3584 2450 3431 
Q 2728 3278 2906 2969 
L 2906 3500 
L 3481 3500 
L 3481 434 
z
" transform="scale(0.015625)"/>
       <path id="DejaVuSans-63" d="M 3122 3366 
L 3122 2828 
Q 2878 2963 2633 3030 
Q 2388 3097 2138 3097 
Q 1578 3097 1268 2742 
Q 959 2388 959 1747 
Q 959 1106 1268 751 
Q 1578 397 2138 397 
Q 2388 397 2633 464 
Q 2878 531 3122 666 
L 3122 134 
Q 2881 22 2623 -34 
Q 2366 -91 2075 -91 
Q 1284 -91 818 406 
Q 353 903 353 1747 
Q 353 2603 823 3093 
Q 1294 3584 2113 3584 
Q 2378 3584 2631 3529 
Q 2884 3475 3122 3366 
z
" transform="scale(0.015625)"/>
       <path id="DejaVuSans-28" d="M 1984 4856 
Q 1566 4138 1362 3434 
Q 1159 2731 1159 2009 
Q 1159 1288 1364 580 
Q 1569 -128 1984 -844 
L 1484 -844 
Q 1016 -109 783 600 
Q 550 1309 550 2009 
Q 550 2706 781 3412 
Q 1013 4119 1484 4856 
L 1984 4856 
z
" transform="scale(0.015625)"/>
       <path id="DejaVuSans-55" d="M 556 4666 
L 1191 4666 
L 1191 1831 
Q 1191 1081 1462 751 
Q 1734 422 2344 422 
Q 2950 422 3222 751 
Q 3494 1081 3494 1831 
L 3494 4666 
L 4128 4666 
L 4128 1753 
Q 4128 841 3676 375 
Q 3225 -91 2344 -91 
Q 1459 -91 1007 375 
Q 556 841 556 1753 
L 556 4666 
z
" transform="scale(0.015625)"/>
       <path id="DejaVuSans-3d" d="M 678 2906 
L 4684 2906 
L 4684 2381 
L 678 2381 
L 678 2906 
z
M 678 1631 
L 4684 1631 
L 4684 1100 
L 678 1100 
L 678 1631 
z
" transform="scale(0.015625)"/>
       <path id="DejaVuSans-37" d="M 525 4666 
L 3525 4666 
L 3525 4397 
L 1831 0 
L 1172 0 
L 2766 4134 
L 525 4134 
L 525 4666 
z
" transform="scale(0.015625)"/>
       <path id="DejaVuSans-35" d="M 691 4666 
L 3169 4666 
L 3169 4134 
L 1269 4134 
L 1269 2991 
Q 1406 3038 1543 3061 
Q 1681 3084 1819 3084 
Q 2600 3084 3056 2656 
Q 3513 2228 3513 1497 
Q 3513 744 3044 326 
Q 2575 -91 1722 -91 
Q 1428 -91 1123 -41 
Q 819 9 494 109 
L 494 744 
Q 775 591 1075 516 
Q 1375 441 1709 441 
Q 2250 441 2565 725 
Q 2881 1009 2881 1497 
Q 2881 1984 2565 2268 
Q 2250 2553 1709 2553 
Q 1456 2553 1204 2497 
Q 953 2441 691 2322 
L 691 4666 
z
" transform="scale(0.015625)"/>
       <path id="DejaVuSans-29" d="M 513 4856 
L 1013 4856 
Q 1481 4119 1714 3412 
Q 1947 2706 1947 2009 
Q 1947 1309 1714 600 
Q 1481 -109 1013 -844 
L 513 -844 
Q 928 -128 1133 580 
Q 1338 1288 1338 2009 
Q 1338 2731 1133 3434 
Q 928 4138 513 4856 
z
" transform="scale(0.015625)"/>
      </defs>
      <use xlink:href="#DejaVuSans-4c"/>
      <use xlink:href="#DejaVuSans-6f" transform="translate(53.962891 0)"/>
      <use xlink:href="#DejaVuSans-67" transform="translate(115.144531 0)"/>
      <use xlink:href="#DejaVuSans-69" transform="translate(178.621094 0)"/>
      <use xlink:href="#DejaVuSans-73" transform="translate(206.404297 0)"/>
      <use xlink:href="#DejaVuSans-74" transform="translate(258.503906 0)"/>
      <use xlink:href="#DejaVuSans-69" transform="translate(297.712891 0)"/>
      <use xlink:href="#DejaVuSans-63" transform="translate(325.496094 0)"/>
      <use xlink:href="#DejaVuSans-20" transform="translate(380.476562 0)"/>
      <use xlink:href="#DejaVuSans-52" transform="translate(412.263672 0)"/>
      <use xlink:href="#DejaVuSans-65" transform="translate(477.246094 0)"/>
      <use xlink:href="#DejaVuSans-67" transform="translate(538.769531 0)"/>
      <use xlink:href="#DejaVuSans-72" transform="translate(602.246094 0)"/>
      <use xlink:href="#DejaVuSans-65" transform="translate(641.109375 0)"/>
      <use xlink:href="#DejaVuSans-73" transform="translate(702.632812 0)"/>
      <use xlink:href="#DejaVuSans-73" transform="translate(754.732422 0)"/>
      <use xlink:href="#DejaVuSans-69" transform="translate(806.832031 0)"/>
      <use xlink:href="#DejaVuSans-6f" transform="translate(834.615234 0)"/>
      <use xlink:href="#DejaVuSans-6e" transform="translate(895.796875 0)"/>
      <use xlink:href="#DejaVuSans-20" transform="translate(959.175781 0)"/>
      <use xlink:href="#DejaVuSans-28" transform="translate(990.962891 0)"/>
      <use xlink:href="#DejaVuSans-41" transform="translate(1029.976562 0)"/>
      <use xlink:href="#DejaVuSans-55" transform="translate(1098.384766 0)"/>
      <use xlink:href="#DejaVuSans-43" transform="translate(1171.578125 0)"/>
      <use xlink:href="#DejaVuSans-20" transform="translate(1241.402344 0)"/>
      <use xlink:href="#DejaVuSans-3d" transform="translate(1273.189453 0)"/>
      <use xlink:href="#DejaVuSans-20" transform="translate(1356.978516 0)"/>
      <use xlink:href="#DejaVuSans-30" transform="translate(1388.765625 0)"/>
      <use xlink:href="#DejaVuSans-2e" transform="translate(1452.388672 0)"/>
      <use xlink:href="#DejaVuSans-37" transform="translate(1484.175781 0)"/>
      <use xlink:href="#DejaVuSans-34" transform="translate(1547.798828 0)"/>
      <use xlink:href="#DejaVuSans-35" transform="translate(1611.421875 0)"/>
      <use xlink:href="#DejaVuSans-29" transform="translate(1675.044922 0)"/>
     </g>
    </g>
    <g id="line2d_29">
     <path d="M 344.935 356.220312 
L 354.935 356.220312 
L 364.935 356.220312 
" style="fill: none; stroke: #c0392b; stroke-width: 2; stroke-linecap: square"/>
    </g>
    <g id="text_17">
     <!-- Random Forest (AUC = 0.846) -->
     <g transform="translate(372.935 359.720312) scale(0.1 -0.1)">
      <defs>
       <path id="DejaVuSans-64" d="M 2906 2969 
L 2906 4863 
L 3481 4863 
L 3481 0 
L 2906 0 
L 2906 525 
Q 2725 213 2448 61 
Q 2172 -91 1784 -91 
Q 1150 -91 751 415 
Q 353 922 353 1747 
Q 353 2572 751 3078 
Q 1150 3584 1784 3584 
Q 2172 3584 2448 3432 
Q 2725 3281 2906 2969 
z
M 947 1747 
Q 947 1113 1208 752 
Q 1469 391 1925 391 
Q 2381 391 2643 752 
Q 2906 1113 2906 1747 
Q 2906 2381 2643 2742 
Q 2381 3103 1925 3103 
Q 1469 3103 1208 2742 
Q 947 2381 947 1747 
z
" transform="scale(0.015625)"/>
       <path id="DejaVuSans-6d" d="M 3328 2828 
Q 3544 3216 3844 3400 
Q 4144 3584 4550 3584 
Q 5097 3584 5394 3201 
Q 5691 2819 5691 2113 
L 5691 0 
L 5113 0 
L 5113 2094 
Q 5113 2597 4934 2840 
Q 4756 3084 4391 3084 
Q 3944 3084 3684 2787 
Q 3425 2491 3425 1978 
L 3425 0 
L 2847 0 
L 2847 2094 
Q 2847 2600 2669 2842 
Q 2491 3084 2119 3084 
Q 1678 3084 1418 2786 
Q 1159 2488 1159 1978 
L 1159 0 
L 581 0 
L 581 3500 
L 1159 3500 
L 1159 2956 
Q 1356 3278 1631 3431 
Q 1906 3584 2284 3584 
Q 2666 3584 2933 3390 
Q 3200 3197 3328 2828 
z
" transform="scale(0.015625)"/>
      </defs>
      <use xlink:href="#DejaVuSans-52"/>
      <use xlink:href="#DejaVuSans-61" transform="translate(67.232422 0)"/>
      <use xlink:href="#DejaVuSans-6e" transform="translate(128.511719 0)"/>
      <use xlink:href="#DejaVuSans-64" transform="translate(191.890625 0)"/>
      <use xlink:href="#DejaVuSans-6f" transform="translate(255.367188 0)"/>
      <use xlink:href="#DejaVuSans-6d" transform="translate(316.548828 0)"/>
      <use xlink:href="#DejaVuSans-20" transform="translate(413.960938 0)"/>
      <use xlink:href="#DejaVuSans-46" transform="translate(445.748047 0)"/>
      <use xlink:href="#DejaVuSans-6f" transform="translate(499.642578 0)"/>
      <use xlink:href="#DejaVuSans-72" transform="translate(560.824219 0)"/>
      <use xlink:href="#DejaVuSans-65" transform="translate(599.6875 0)"/>
      <use xlink:href="#DejaVuSans-73" transform="translate(661.210938 0)"/>
      <use xlink:href="#DejaVuSans-74" transform="translate(713.310547 0)"/>
      <use xlink:href="#DejaVuSans-20" transform="translate(752.519531 0)"/>
      <use xlink:href="#DejaVuSans-28" transform="translate(784.306641 0)"/>
      <use xlink:href="#DejaVuSans-41" transform="translate(823.320312 0)"/>
      <use xlink:href="#DejaVuSans-55" transform="translate(891.728516 0)"/>
      <use xlink:href="#DejaVuSans-43" transform="translate(964.921875 0)"/>
      <use xlink:href="#DejaVuSans-20" transform="translate(1034.746094 0)"/>
      <use xlink:href="#DejaVuSans-3d" transform="translate(1066.533203 0)"/>
      <use xlink:href="#DejaVuSans-20" transform="translate(1150.322266 0)"/>
      <use xlink:href="#DejaVuSans-30" transform="translate(1182.109375 0)"/>
      <use xlink:href="#DejaVuSans-2e" transform="translate(1245.732422 0)"/>
      <use xlink:href="#DejaVuSans-38" transform="translate(1277.519531 0)"/>
      <use xlink:href="#DejaVuSans-34" transform="translate(1341.142578 0)"/>
      <use xlink:href="#DejaVuSans-36" transform="translate(1404.765625 0)"/>
      <use xlink:href="#DejaVuSans-29" transform="translate(1468.388672 0)"/>
     </g>
    </g>
    <g id="line2d_30">
     <path d="M 344.935 370.898437 
L 354.935 370.898437 
L 364.935 370.898437 
" style="fill: none; stroke-dasharray: 5.55,2.4; stroke-dashoffset: 0; stroke: #555555; stroke-width: 1.5"/>
    </g>
    <g id="text_18">
     <!-- Baseline -->
     <g transform="translate(372.935 374.398437) scale(0.1 -0.1)">
      <defs>
       <path id="DejaVuSans-42" d="M 1259 2228 
L 1259 519 
L 2272 519 
Q 2781 519 3026 730 
Q 3272 941 3272 1375 
Q 3272 1813 3026 2020 
Q 2781 2228 2272 2228 
L 1259 2228 
z
M 1259 4147 
L 1259 2741 
L 2194 2741 
Q 2656 2741 2882 2914 
Q 3109 3088 3109 3444 
Q 3109 3797 2882 3972 
Q 2656 4147 2194 4147 
L 1259 4147 
z
M 628 4666 
L 2241 4666 
Q 2963 4666 3353 4366 
Q 3744 4066 3744 3513 
Q 3744 3084 3544 2831 
Q 3344 2578 2956 2516 
Q 3422 2416 3680 2098 
Q 3938 1781 3938 1306 
Q 3938 681 3513 340 
Q 3088 0 2303 0 
L 628 0 
L 628 4666 
z
" transform="scale(0.015625)"/>
      </defs>
      <use xlink:href="#DejaVuSans-42"/>
      <use xlink:href="#DejaVuSans-61" transform="translate(68.603516 0)"/>
      <use xlink:href="#DejaVuSans-73" transform="translate(129.882812 0)"/>
      <use xlink:href="#DejaVuSans-65" transform="translate(181.982422 0)"/>
      <use xlink:href="#DejaVuSans-6c" transform="translate(243.505859 0)"/>
      <use xlink:href="#DejaVuSans-69" transform="translate(271.289062 0)"/>
      <use xlink:href="#DejaVuSans-6e" transform="translate(299.072266 0)"/>
      <use xlink:href="#DejaVuSans-65" transform="translate(362.451172 0)"/>
     </g>
    </g>
   </g>
  </g>
 </g>
 <defs>
  <clipPath id="p0c55b737d0">
   <rect x="43.78125" y="22.318125" width="509.56" height="363.16"/>
  </clipPath>
 </defs>
</svg>
